<svg xmlns="http://www.w3.org/2000/svg" width="98" height="97.998" viewBox="0 0 98 97.998">
  <g id="Group_1205422" data-name="Group 1205422" transform="translate(-721.51 10727.752)">
    <g id="Group_1204422" data-name="Group 1204422" transform="translate(-81.272 -12694.752)">
      <g id="Group_1204180" data-name="Group 1204180" transform="translate(-1 -5.016)">
        <g id="Group_1204143" data-name="Group 1204143" transform="translate(-67.331 1694.852)">
          <g id="Group_1188789" data-name="Group 1188789" transform="translate(871.113 277.164)">
            <path id="Path_1243039" data-name="Path 1243039" d="M41.05,0h0a41.05,41.05,0,0,1,0,82.1h0a41.05,41.05,0,0,1,0-82.1Z" transform="translate(7.951 7.949)" fill="#efce09"/>
            <rect id="Rectangle_400907" data-name="Rectangle 400907" width="88.438" height="88.437" rx="44.218" transform="translate(4.782 4.781)" fill="none"/>
            <g id="Group_1098742" data-name="Group 1098742" transform="translate(0)">
              <g id="Rectangle_400898" data-name="Rectangle 400898" transform="translate(0)" fill="none" stroke="#fff" stroke-width="2" opacity="0.859">
                <rect width="98" height="97.999" rx="48.999" stroke="none"/>
                <rect x="1" y="1" width="96" height="95.999" rx="47.999" fill="none"/>
              </g>
              <g id="Rectangle_400907-2" data-name="Rectangle 400907" transform="translate(0)" fill="none" stroke="#0f1f33" stroke-linecap="round" stroke-width="2">
                <rect width="98" height="97.999" rx="48.999" stroke="none"/>
                <rect x="1" y="1" width="96" height="95.999" rx="47.999" fill="none"/>
              </g>
            </g>
          </g>
        </g>
      </g>
    </g>
    <path id="Path_1329919" data-name="Path 1329919" d="M130,17.268V8H102.2a3.707,3.707,0,0,0-3.707,3.707v7.414a16.682,16.682,0,0,1,22.9,15.487,16.5,16.5,0,0,1-2.558,8.879l8.693,8.7a3.707,3.707,0,0,1-5.236,5.236l-8.7-8.693a16.721,16.721,0,0,1-15.1,1.362v7.952a3.707,3.707,0,0,0,3.707,3.707h35.218a3.707,3.707,0,0,0,3.707-3.707V19.121h-9.268A1.854,1.854,0,0,1,130,17.268Zm7.414,38.925a1.854,1.854,0,0,1-1.854,1.854A1.854,1.854,0,0,0,137.413,56.193ZM121.658,24.682" transform="translate(653.945 -10713.724)" fill="#e0e0e2"/>
    <path id="Path_1329920" data-name="Path 1329920" d="M370.488,17.268a1.854,1.854,0,0,0,1.854,1.854h9.268L370.488,8Zm0,0" transform="translate(413.456 -10713.724)" fill="#c6c5ca"/>
    <path id="Path_1329921" data-name="Path 1329921" d="M33.729,124.486a16.684,16.684,0,1,0-8.879,2.558A16.613,16.613,0,0,0,33.729,124.486Zm-15.1-2.734a12.975,12.975,0,1,1,17.628-5.227,12.773,12.773,0,0,1-5.245,5.246A13.011,13.011,0,0,1,18.631,121.752Zm0,0" transform="translate(733.802 -10789.478)" fill="#ffcd00"/>
    <path id="Path_1329922" data-name="Path 1329922" d="M62.188,147.7a12.636,12.636,0,0,0,2.233-3.012,12.981,12.981,0,1,0-5.245,5.246A12.647,12.647,0,0,0,62.188,147.7Zm-12.614-3.346" transform="translate(705.639 -10817.639)" fill="#c6c5ca"/>
    <path id="Path_1329923" data-name="Path 1329923" d="M228.809,319.566l8.7,8.693a3.707,3.707,0,0,0,5.236-5.236l-8.693-8.7A16.613,16.613,0,0,1,228.809,319.566Zm0,0" transform="translate(538.722 -10984.558)" fill="#00aeef"/>
    <g id="Group_1205421" data-name="Group 1205421" transform="translate(741.023 -10706.65)">
      <path id="Path_1329924" data-name="Path 1329924" d="M54.957,11.99a.889.889,0,0,0-.048-.238c-.01-.03-.018-.058-.03-.087a.931.931,0,0,0-.186-.272L43.572.272A.912.912,0,0,0,43.3.086c-.028-.013-.056-.02-.084-.03a.912.912,0,0,0-.243-.048C42.957.01,42.94,0,42.921,0h-27.8a4.64,4.64,0,0,0-4.634,4.634v6.821a17.574,17.574,0,0,0,0,32.16v7.359a4.64,4.64,0,0,0,4.634,4.634H50.335a4.639,4.639,0,0,0,4.634-4.634V12.048C54.969,12.028,54.959,12.01,54.957,11.99ZM51.8,11.121H44.774a.927.927,0,0,1-.927-.927V3.164ZM1.873,27.535A15.735,15.735,0,0,1,17.628,11.779q.79,0,1.565.076a15.713,15.713,0,0,1,14,13.32,15.909,15.909,0,0,1,.194,2.36,15.755,15.755,0,0,1-31.51,0ZM28.392,41.457c.127-.1.252-.2.376-.3a17.345,17.345,0,0,0,1.313-1.173,17.419,17.419,0,0,0,1.173-1.312c.1-.124.2-.25.3-.377.112-.147.234-.286.341-.435l7.9,7.91a2.759,2.759,0,0,1,0,3.921,2.823,2.823,0,0,1-3.924,0l-7.911-7.9C28.107,41.69,28.247,41.569,28.392,41.457Zm21.942,12.3H15.117a2.78,2.78,0,0,1-2.78-2.78V44.338c.057.019.118.031.176.048.148.045.3.081.449.123.347.093.7.186,1.049.255.173.036.347.07.522.1.353.062.709.111,1.067.152.16.018.317.041.477.054.514.044,1.03.072,1.552.072a17.493,17.493,0,0,0,8.73-2.326L34.553,51A4.634,4.634,0,1,0,41.1,44.46l-8.191-8.2a17.488,17.488,0,0,0,2.326-8.729q0-.88-.085-1.747A17.605,17.605,0,0,0,17.628,9.926c-.522,0-1.039.029-1.552.072-.16.014-.319.036-.478.055q-.535.06-1.064.152-.264.046-.526.1c-.348.072-.694.157-1.037.252-.154.042-.308.079-.463.125-.057.018-.116.03-.173.048v-6.1a2.781,2.781,0,0,1,2.78-2.78h26.88v8.341a2.781,2.781,0,0,0,2.78,2.78h8.341v38A2.78,2.78,0,0,1,50.335,53.754Zm0,0" fill="#231f20"/>
      <path id="Path_1329925" data-name="Path 1329925" d="M160.731,48.927A.927.927,0,0,0,159.8,48H139.415a.927.927,0,1,0,0,1.854H159.8A.927.927,0,0,0,160.731,48.927Zm0,0" transform="translate(-122.445 -42.439)" fill="#231f20"/>
      <path id="Path_1329926" data-name="Path 1329926" d="M326.537,192H315.415a.927.927,0,0,0,0,1.854h11.121a.927.927,0,0,0,0-1.854Zm0,0" transform="translate(-278.055 -169.757)" fill="#231f20"/>
      <path id="Path_1329927" data-name="Path 1329927" d="M326.537,240H315.415a.927.927,0,0,0,0,1.854h11.121a.927.927,0,0,0,0-1.854Zm0,0" transform="translate(-278.055 -212.196)" fill="#231f20"/>
      <path id="Path_1329928" data-name="Path 1329928" d="M320.39,288.927a.927.927,0,0,0-.927-.927H307.415a.927.927,0,1,0,0,1.854h12.048A.927.927,0,0,0,320.39,288.927Zm0,0" transform="translate(-270.982 -254.636)" fill="#231f20"/>
      <path id="Path_1329929" data-name="Path 1329929" d="M348.683,336.927a.927.927,0,0,0-.927-.927h-8.341a.927.927,0,0,0,0,1.854h8.341A.927.927,0,0,0,348.683,336.927Zm0,0" transform="translate(-299.275 -297.075)" fill="#231f20"/>
      <path id="Path_1329930" data-name="Path 1329930" d="M259.756,96.927a.927.927,0,0,0-.927-.927h-7.414a.927.927,0,1,0,0,1.854h7.414A.927.927,0,0,0,259.756,96.927Zm0,0" transform="translate(-221.47 -84.879)" fill="#231f20"/>
      <path id="Path_1329931" data-name="Path 1329931" d="M306.244,144.927a.927.927,0,0,0-.927-.927h-13.9a.927.927,0,0,0,0,1.854h13.9A.927.927,0,0,0,306.244,144.927Zm0,0" transform="translate(-256.836 -127.318)" fill="#231f20"/>
      <path id="Path_1329932" data-name="Path 1329932" d="M115.415,185.854H121.9a.927.927,0,1,0,0-1.854h-6.488a.927.927,0,1,0,0,1.854Zm0,0" transform="translate(-101.225 -162.684)" fill="#231f20"/>
      <path id="Path_1329933" data-name="Path 1329933" d="M98.244,232.927a.927.927,0,0,0-.927-.927h-13.9a.927.927,0,1,0,0,1.854h13.9A.927.927,0,0,0,98.244,232.927Zm0,0" transform="translate(-72.932 -205.123)" fill="#231f20"/>
      <path id="Path_1329934" data-name="Path 1329934" d="M121.9,280h-6.488a.927.927,0,1,0,0,1.854H121.9a.927.927,0,1,0,0-1.854Zm0,0" transform="translate(-101.225 -247.562)" fill="#231f20"/>
      <path id="Path_1329935" data-name="Path 1329935" d="M52.653,143.838a13.591,13.591,0,0,0,5.407-5.244c.073-.128.153-.252.222-.382.036-.067.064-.136.1-.2.141-.271.278-.541.4-.818s.217-.54.316-.813c.029-.079.065-.156.093-.235a13.909,13.909,0,1,0-6.535,7.7ZM40.28,142.187a11.957,11.957,0,0,1-2.744-2.056,12.2,12.2,0,0,1-1.512-1.84q-.329-.491-.605-1.009a12.049,12.049,0,1,1,21.231.053v.008a11.844,11.844,0,0,1-4.867,4.865,12.014,12.014,0,0,1-11.5-.018Zm0,0" transform="translate(-28.427 -104.079)" fill="#231f20"/>
      <path id="Path_1329936" data-name="Path 1329936" d="M384.976,384a.927.927,0,0,0-.927.927v3.707a.927.927,0,0,1-.927.927h-3.707a.927.927,0,1,0,0,1.854h3.707a2.78,2.78,0,0,0,2.78-2.78v-3.707A.927.927,0,0,0,384.976,384Zm0,0" transform="translate(-334.641 -339.514)" fill="#231f20"/>
    </g>
  </g>
</svg>
