<svg xmlns="http://www.w3.org/2000/svg" width="98" height="97.998" viewBox="0 0 98 97.998">
  <g id="Group_1205480" data-name="Group 1205480" transform="translate(-9154.51 10316.694)">
    <g id="Group_1204947" data-name="Group 1204947" transform="translate(8350.51 -12854.694)">
      <g id="Group_1204422" data-name="Group 1204422" transform="translate(1.219 571)">
        <g id="Group_1204180" data-name="Group 1204180" transform="translate(-1 -5.016)">
          <g id="Group_1204143" data-name="Group 1204143" transform="translate(-67.331 1694.852)">
            <g id="Group_1188789" data-name="Group 1188789" transform="translate(871.113 277.164)">
              <path id="Path_1243039" data-name="Path 1243039" d="M41.05,0h0a41.05,41.05,0,0,1,0,82.1h0a41.05,41.05,0,0,1,0-82.1Z" transform="translate(7.951 7.949)" fill="#efce09"/>
              <rect id="Rectangle_400907" data-name="Rectangle 400907" width="88.438" height="88.437" rx="44.218" transform="translate(4.782 4.781)" fill="none"/>
              <g id="Group_1098742" data-name="Group 1098742" transform="translate(0)">
                <g id="Rectangle_400898" data-name="Rectangle 400898" transform="translate(0)" fill="none" stroke="#fff" stroke-width="2" opacity="0.859">
                  <rect width="98" height="97.999" rx="48.999" stroke="none"/>
                  <rect x="1" y="1" width="96" height="95.999" rx="47.999" fill="none"/>
                </g>
                <g id="Rectangle_400907-2" data-name="Rectangle 400907" transform="translate(0)" fill="none" stroke="#0f1f33" stroke-linecap="round" stroke-width="2">
                  <rect width="98" height="97.999" rx="48.999" stroke="none"/>
                  <rect x="1" y="1" width="96" height="95.999" rx="47.999" fill="none"/>
                </g>
              </g>
            </g>
          </g>
        </g>
      </g>
    </g>
    <g id="ventas" transform="translate(9177.658 -10294.009)">
      <path id="Path_1330087" data-name="Path 1330087" d="M50.6,4.71v9.408a1.71,1.71,0,1,1-3.421,0V8.807C42.146,13.6,27.993,25.98,3.544,39.561a1.711,1.711,0,0,1-1.659-2.993C25.65,23.363,39.735,11.116,44.72,6.421H39.486a1.71,1.71,0,1,1,0-3.421h9.408A1.716,1.716,0,0,1,50.6,4.71Z" transform="translate(-0.145 -0.434)" fill="#3ed3c0"/>
      <rect id="Rectangle_412318" data-name="Rectangle 412318" width="6.842" height="7.697" rx="2" transform="translate(1.71 42.762)" fill="#5b50c9"/>
      <rect id="Rectangle_412319" data-name="Rectangle 412319" width="6.842" height="12.828" rx="2" transform="translate(11.973 37.63)" fill="#5b50c9"/>
      <rect id="Rectangle_412320" data-name="Rectangle 412320" width="6.842" height="25.657" rx="2" transform="translate(32.498 24.802)" fill="#5b50c9"/>
      <rect id="Rectangle_412321" data-name="Rectangle 412321" width="6.842" height="31.643" rx="2" transform="translate(42.761 18.815)" fill="#5b50c9"/>
      <rect id="Rectangle_412322" data-name="Rectangle 412322" width="6.842" height="18.815" rx="2" transform="translate(22.236 31.644)" fill="#5b50c9"/>
      <circle id="Ellipse_12625" data-name="Ellipse 12625" cx="11.118" cy="11.118" r="11.118" transform="translate(0.855 0.856)" fill="#3ed3c0"/>
      <g id="Group_1205479" data-name="Group 1205479" transform="translate(-0.001 0.002)">
        <path id="Path_1330088" data-name="Path 1330088" d="M48.748,2H39.34a2.566,2.566,0,0,0,0,5.131h3.045C36.392,12.554,22.869,23.7,1.324,35.675A2.566,2.566,0,0,0,.1,37.225a2.531,2.531,0,0,0,.23,1.942,2.566,2.566,0,0,0,3.487,1C26.355,27.642,40.2,16.111,46.182,10.629v3.344a2.566,2.566,0,1,0,5.131,0V4.566A2.566,2.566,0,0,0,48.748,2ZM49.6,13.973a.855.855,0,1,1-1.71,0V8.662a.855.855,0,0,0-1.444-.62C41.518,12.731,27.412,25.1,2.986,38.666a.878.878,0,0,1-1.169-.337.832.832,0,0,1-.074-.639.855.855,0,0,1,.412-.52C26.071,23.882,40.2,11.573,45.161,6.9a.855.855,0,0,0-.587-1.478H39.34a.855.855,0,1,1,0-1.71h9.408a.855.855,0,0,1,.855.855Z" transform="translate(0.001 -0.291)" fill="#373737"/>
        <path id="Path_1330089" data-name="Path 1330089" d="M6.987,58.408a2.566,2.566,0,0,0,2.566-2.566V51.566A2.566,2.566,0,0,0,6.987,49H3.566A2.566,2.566,0,0,0,1,51.566v4.276a2.566,2.566,0,0,0,2.566,2.566ZM2.71,55.842V51.566a.855.855,0,0,1,.855-.855H6.987a.855.855,0,0,1,.855.855v4.276a.855.855,0,0,1-.855.855H3.566A.855.855,0,0,1,2.71,55.842Z" transform="translate(-0.144 -7.096)" fill="#373737"/>
        <path id="Path_1330090" data-name="Path 1330090" d="M18.987,57.539a2.566,2.566,0,0,0,2.566-2.566V45.566A2.566,2.566,0,0,0,18.987,43H15.566A2.566,2.566,0,0,0,13,45.566v9.408a2.566,2.566,0,0,0,2.566,2.566ZM14.71,54.973V45.566a.855.855,0,0,1,.855-.855h3.421a.855.855,0,0,1,.855.855v9.408a.855.855,0,0,1-.855.855H15.566A.855.855,0,0,1,14.71,54.973Z" transform="translate(-1.881 -6.227)" fill="#373737"/>
        <path id="Path_1330091" data-name="Path 1330091" d="M42.987,55.367A2.566,2.566,0,0,0,45.552,52.8V30.566A2.566,2.566,0,0,0,42.987,28H39.566A2.566,2.566,0,0,0,37,30.566V52.8a2.566,2.566,0,0,0,2.566,2.566ZM38.71,52.8V30.566a.855.855,0,0,1,.855-.855h3.421a.855.855,0,0,1,.855.855V52.8a.855.855,0,0,1-.855.855H39.566A.855.855,0,0,1,38.71,52.8Z" transform="translate(-5.356 -4.055)" fill="#373737"/>
        <path id="Path_1330092" data-name="Path 1330092" d="M54.987,54.354a2.566,2.566,0,0,0,2.566-2.566V23.566A2.566,2.566,0,0,0,54.987,21H51.566A2.566,2.566,0,0,0,49,23.566V51.788a2.566,2.566,0,0,0,2.566,2.566ZM50.71,51.788V23.566a.855.855,0,0,1,.855-.855h3.421a.855.855,0,0,1,.855.855V51.788a.855.855,0,0,1-.855.855H51.566A.855.855,0,0,1,50.71,51.788Z" transform="translate(-7.093 -3.042)" fill="#373737"/>
        <path id="Path_1330093" data-name="Path 1330093" d="M30.987,56.525a2.566,2.566,0,0,0,2.566-2.566V38.566A2.566,2.566,0,0,0,30.987,36H27.566A2.566,2.566,0,0,0,25,38.566V53.96a2.566,2.566,0,0,0,2.566,2.566ZM26.71,53.96V38.566a.855.855,0,0,1,.855-.855h3.421a.855.855,0,0,1,.855.855V53.96a.855.855,0,0,1-.855.855H27.566A.855.855,0,0,1,26.71,53.96Z" transform="translate(-3.618 -5.214)" fill="#373737"/>
        <path id="Path_1330094" data-name="Path 1330094" d="M18.681,3.065a.855.855,0,0,0-.257-1.181A11.973,11.973,0,1,0,21.418,4.6a.857.857,0,1,0-1.353,1.054,10.158,10.158,0,0,1,2.172,6.315A10.263,10.263,0,1,1,17.5,3.324a.855.855,0,0,0,1.181-.259Z" transform="translate(0 -0.002)" fill="#373737"/>
        <path id="Path_1330095" data-name="Path 1330095" d="M15.841,9.131a.855.855,0,0,0,1.71,0,4.284,4.284,0,0,0-3.421-4.191V4.855a.855.855,0,1,0-1.71,0v.086a4.276,4.276,0,0,0,0,8.381v5.06a2.566,2.566,0,0,1-1.71-2.409.855.855,0,1,0-1.71,0,4.284,4.284,0,0,0,3.421,4.191v.086a.855.855,0,1,0,1.71,0v-.086a4.276,4.276,0,0,0,0-8.381V6.723a2.566,2.566,0,0,1,1.71,2.408Zm-5.131,0a2.566,2.566,0,0,1,1.71-2.408V11.54A2.566,2.566,0,0,1,10.71,9.131Zm5.131,6.842a2.566,2.566,0,0,1-1.71,2.408V13.565A2.566,2.566,0,0,1,15.841,15.973Z" transform="translate(-1.301 -0.581)" fill="#373737"/>
      </g>
    </g>
  </g>
</svg>
