<svg xmlns="http://www.w3.org/2000/svg" width="98" height="97.999" viewBox="0 0 98 97.999">
  <g id="Group_1205132" data-name="Group 1205132" transform="translate(-751.301 -6297.081)">
    <g id="Group_1204638" data-name="Group 1204638" transform="translate(-52.699 3759.081)">
      <g id="Group_1204422" data-name="Group 1204422" transform="translate(1.219 571)">
        <g id="Group_1204180" data-name="Group 1204180" transform="translate(-1 -5.016)">
          <g id="Group_1204143" data-name="Group 1204143" transform="translate(-67.331 1694.852)">
            <g id="Group_1188789" data-name="Group 1188789" transform="translate(871.113 277.164)">
              <path id="Path_1243039" data-name="Path 1243039" d="M41.05,0h0a41.05,41.05,0,0,1,0,82.1h0a41.05,41.05,0,0,1,0-82.1Z" transform="translate(7.951 7.949)" fill="#efce09"/>
              <rect id="Rectangle_400907" data-name="Rectangle 400907" width="88.438" height="88.437" rx="44.218" transform="translate(4.782 4.781)" fill="none"/>
              <g id="Group_1098742" data-name="Group 1098742" transform="translate(0)">
                <g id="Rectangle_400898" data-name="Rectangle 400898" transform="translate(0)" fill="none" stroke="#fff" stroke-width="2" opacity="0.859">
                  <rect width="98" height="97.999" rx="48.999" stroke="none"/>
                  <rect x="1" y="1" width="96" height="95.999" rx="47.999" fill="none"/>
                </g>
                <g id="Rectangle_400907-2" data-name="Rectangle 400907" transform="translate(0)" fill="none" stroke="#0f1f33" stroke-linecap="round" stroke-width="2">
                  <rect width="98" height="97.999" rx="48.999" stroke="none"/>
                  <rect x="1" y="1" width="96" height="95.999" rx="47.999" fill="none"/>
                </g>
              </g>
            </g>
          </g>
        </g>
      </g>
    </g>
    <g id="comparar" transform="translate(772.344 6324.539)">
      <g id="Group_1205131" data-name="Group 1205131" transform="translate(0.868 29.797)">
        <path id="Path_1329173" data-name="Path 1329173" d="M194.358,362.828H175.844v-1.157a3.471,3.471,0,0,1,3.471-3.471h11.571a3.471,3.471,0,0,1,3.471,3.471Zm0,0" transform="translate(-156.404 -346.628)" fill="#90a4ae"/>
        <path id="Path_1329174" data-name="Path 1329174" d="M26.03,258H7.516v1.157a2.314,2.314,0,0,0,2.314,2.314H23.716a2.314,2.314,0,0,0,2.314-2.314Zm0,0" transform="translate(-7.516 -258.004)" fill="#90a4ae"/>
        <path id="Path_1329175" data-name="Path 1329175" d="M344.172,258h18.514v1.157a2.314,2.314,0,0,1-2.314,2.314H346.486a2.314,2.314,0,0,1-2.314-2.314Zm0,0" transform="translate(-305.292 -258.004)" fill="#90a4ae"/>
      </g>
      <path id="Path_1329176" data-name="Path 1329176" d="M232.884,296.163h-6.943v-4.629a3.471,3.471,0,1,1,6.943,0Zm0,0" transform="translate(-199.848 -254.795)" fill="#d7dfed"/>
      <path id="Path_1329177" data-name="Path 1329177" d="M26.03,14.458,19.087,7.516H7.516V32.973H26.03Zm0,0" transform="translate(-6.648 -6.648)" fill="#a6e6a7"/>
      <path id="Path_1329178" data-name="Path 1329178" d="M81.124,7.516H77.652V17.93H88.067V14.458H81.124Zm0,0" transform="translate(-68.684 -6.648)" fill="#80d183"/>
      <path id="Path_1329179" data-name="Path 1329179" d="M362.686,14.458l-6.943-6.943H344.172V32.973h18.514Zm0,0" transform="translate(-304.424 -6.648)" fill="#b2ebf2"/>
      <path id="Path_1329180" data-name="Path 1329180" d="M417.78,7.516h-3.471V17.93h10.414V14.458H417.78Zm0,0" transform="translate(-366.461 -6.648)" fill="#80deea"/>
      <path id="Path_1329181" data-name="Path 1329181" d="M385.8,103.477a5.786,5.786,0,1,1-5.786-5.786A5.786,5.786,0,0,1,385.8,103.477Zm0,0" transform="translate(-331.011 -86.409)" fill="#ff7070"/>
      <path id="Path_1329182" data-name="Path 1329182" d="M374.23,147.789a5.786,5.786,0,0,0,9.877,4.091l-4.091-4.091Zm0,0" transform="translate(-331.011 -130.721)" fill="#a6e6a7"/>
      <path id="Path_1329183" data-name="Path 1329183" d="M380.016,97.691a5.786,5.786,0,0,0-5.786,5.786h5.786Zm0,0" transform="translate(-331.011 -86.409)" fill="#ffde7a"/>
      <path id="Path_1329184" data-name="Path 1329184" d="M225.941,328.141h6.943v3.471h-6.943Zm0,0" transform="translate(-199.848 -290.244)" fill="#cad4e6"/>
      <path id="Path_1329185" data-name="Path 1329185" d="M49.336,252.224h8.058v.289a1.448,1.448,0,0,1-1.446,1.446H42.062a1.448,1.448,0,0,1-1.446-1.446v-.289H47.6v-1.736H38.88v2.025a3.186,3.186,0,0,0,3.182,3.182h6.075v.521a1.448,1.448,0,0,1-1.446,1.446H33.857a4.339,4.339,0,0,0-8.584,0H12.439a1.448,1.448,0,0,1-1.446-1.446V255.7h6.075a3.186,3.186,0,0,0,3.182-3.182v-2.025H10.456v1.736h8.058v.289a1.448,1.448,0,0,1-1.446,1.446H3.182a1.448,1.448,0,0,1-1.446-1.446v-.289H8.72v-1.736H0v2.025A3.186,3.186,0,0,0,3.182,255.7H9.257v.521a3.186,3.186,0,0,0,3.182,3.182H25.226v2.661H23.779A4.344,4.344,0,0,0,19.44,266.4v2.025H25.6v-1.736H21.176V266.4a2.606,2.606,0,0,1,2.6-2.6H35.351a2.606,2.606,0,0,1,2.6,2.6v.289H27.333v1.736H39.69V266.4a4.344,4.344,0,0,0-4.339-4.339H33.9V259.4H46.691a3.186,3.186,0,0,0,3.182-3.182V255.7h6.075a3.186,3.186,0,0,0,3.182-3.182v-2.025H49.336ZM32.169,262.06H26.962V258.3a2.6,2.6,0,0,1,5.207,0Zm0,0" transform="translate(0 -221.56)"/>
      <path id="Path_1329186" data-name="Path 1329186" d="M11.3,94.273H1.736V77.8H0V96.009H11.3Zm0,0" transform="translate(0 -68.816)"/>
      <path id="Path_1329187" data-name="Path 1329187" d="M1.736,1.736h9.835V8.679h6.943V25.457H13.035v1.736H20.25V7.451L12.8,0H0V7.249H1.736ZM13.307,2.963l3.98,3.98h-3.98Zm0,0"/>
      <path id="Path_1329188" data-name="Path 1329188" d="M34.588,110.025V116.1H32.563v1.736H45.291V116.1H43.266v-8.389H41.53V116.1H39.795V112.34H38.059V116.1H36.324v-6.075Zm0,0" transform="translate(-28.802 -95.272)"/>
      <path id="Path_1329189" data-name="Path 1329189" d="M349.455,0h-12.8V7.249h1.736V1.736h9.835V8.679h6.943V25.457h-5.479v1.736h7.215V7.451Zm.508,6.943V2.963l3.98,3.98Zm0,0" transform="translate(-297.776)"/>
      <path id="Path_1329190" data-name="Path 1329190" d="M347.956,94.273h-9.563V77.8h-1.736V96.009h11.3Zm0,0" transform="translate(-297.776 -68.816)"/>
      <path id="Path_1329191" data-name="Path 1329191" d="M380.022,96.829a6.654,6.654,0,1,0-6.654,6.654A6.661,6.661,0,0,0,380.022,96.829Zm-5.786-4.84a4.913,4.913,0,0,1,3.166,7.647l-3.166-3.166Zm-1.736,0v3.972h-3.972A4.929,4.929,0,0,1,372.5,91.99ZM368.529,97.7h4.48l3.167,3.166a4.913,4.913,0,0,1-7.647-3.166Zm0,0" transform="translate(-324.363 -79.762)"/>
      <path id="Path_1329192" data-name="Path 1329192" d="M248.484,120.234h1.736v1.736h-1.736Zm0,0" transform="translate(-219.787 -106.349)"/>
      <path id="Path_1329193" data-name="Path 1329193" d="M278.543,120.234h1.736v1.736h-1.736Zm0,0" transform="translate(-246.374 -106.349)"/>
      <path id="Path_1329194" data-name="Path 1329194" d="M218.426,120.234h1.736v1.736h-1.736Zm0,0" transform="translate(-193.2 -106.349)"/>
      <path id="Path_1329195" data-name="Path 1329195" d="M371.154,31.795h-3.471V30.059h3.471Zm-5.207,0h-1.736V30.059h1.736Zm0,0" transform="translate(-322.149 -26.587)" fill="#fff"/>
      <path id="Path_1329196" data-name="Path 1329196" d="M248.484,312.609h1.736v1.736h-1.736Zm0,0" transform="translate(-219.787 -276.507)" fill="#fff"/>
    </g>
  </g>
</svg>
