<svg xmlns="http://www.w3.org/2000/svg" xmlns:xlink="http://www.w3.org/1999/xlink" width="123" height="135" viewBox="0 0 123 135">
  <defs>
    <filter id="Rectangle_411553" x="0" y="0" width="123" height="135" filterUnits="userSpaceOnUse">
      <feOffset dy="3" input="SourceAlpha"/>
      <feGaussianBlur stdDeviation="3" result="blur"/>
      <feFlood flood-opacity="0.161"/>
      <feComposite operator="in" in2="blur"/>
      <feComposite in="SourceGraphic"/>
    </filter>
  </defs>
  <g id="Group_1204388" data-name="Group 1204388" transform="translate(9.447 5.643)">
    <g transform="matrix(1, 0, 0, 1, -9.45, -5.64)" filter="url(#Rectangle_411553)">
      <rect id="Rectangle_411553-2" data-name="Rectangle 411553" width="105" height="117" rx="14" transform="translate(9 6)" fill="#fff"/>
    </g>
    <path id="Path_1328367" data-name="Path 1328367" d="M.779,0V-7.874H3.158L4.587-2.5,6-7.874H8.384V0H6.907V-6.2L5.344,0H3.813L2.256-6.2V0Zm10.3-3.964-1.37-.247a2.133,2.133,0,0,1,.795-1.225,2.909,2.909,0,0,1,1.676-.4,3.612,3.612,0,0,1,1.5.239,1.5,1.5,0,0,1,.7.607,3.112,3.112,0,0,1,.2,1.351l-.016,1.762a6.116,6.116,0,0,0,.073,1.109A3.237,3.237,0,0,0,14.91,0H13.417q-.059-.15-.145-.446-.038-.134-.054-.177a2.721,2.721,0,0,1-.827.564,2.369,2.369,0,0,1-.94.188,1.944,1.944,0,0,1-1.388-.478,1.589,1.589,0,0,1-.508-1.208,1.622,1.622,0,0,1,.231-.862A1.509,1.509,0,0,1,10.433-3a5.058,5.058,0,0,1,1.2-.352A8.223,8.223,0,0,0,13.1-3.722v-.15a.781.781,0,0,0-.215-.62,1.287,1.287,0,0,0-.811-.185,1.08,1.08,0,0,0-.628.158A1.1,1.1,0,0,0,11.081-3.964ZM13.1-2.739a9.434,9.434,0,0,1-.918.231,2.767,2.767,0,0,0-.822.263.629.629,0,0,0-.3.532.74.74,0,0,0,.236.548.825.825,0,0,0,.6.231,1.307,1.307,0,0,0,.779-.269.945.945,0,0,0,.36-.5,2.98,2.98,0,0,0,.059-.736ZM17.515,0H16.006V-5.7h1.4v.811a2.438,2.438,0,0,1,.647-.757,1.191,1.191,0,0,1,.653-.183,1.916,1.916,0,0,1,.994.285l-.467,1.316a1.324,1.324,0,0,0-.709-.247.838.838,0,0,0-.537.175,1.193,1.193,0,0,0-.346.631,8.966,8.966,0,0,0-.126,1.912Zm2.7.376,1.724.209a.589.589,0,0,0,.2.414,1.135,1.135,0,0,0,.677.161A1.757,1.757,0,0,0,23.7.983.73.73,0,0,0,24,.6a2.292,2.292,0,0,0,.07-.693V-.924A2.042,2.042,0,0,1,22.36,0a2.1,2.1,0,0,1-1.821-.972,3.3,3.3,0,0,1-.526-1.912,3.145,3.145,0,0,1,.69-2.191,2.227,2.227,0,0,1,1.716-.757,2.089,2.089,0,0,1,1.746.929v-.8h1.413V-.585A5.1,5.1,0,0,1,25.411.924a1.87,1.87,0,0,1-.467.784,2.067,2.067,0,0,1-.8.446,4.227,4.227,0,0,1-1.27.161,3.288,3.288,0,0,1-2.057-.5,1.559,1.559,0,0,1-.607-1.26Q20.206.483,20.211.376ZM21.56-2.97a2.057,2.057,0,0,0,.352,1.329,1.088,1.088,0,0,0,.867.422,1.2,1.2,0,0,0,.935-.432,1.885,1.885,0,0,0,.381-1.281,2,2,0,0,0-.365-1.316,1.161,1.161,0,0,0-.924-.43,1.114,1.114,0,0,0-.894.422A1.977,1.977,0,0,0,21.56-2.97Zm8.814,1.155,1.5.252A2.467,2.467,0,0,1,30.962-.3,2.69,2.69,0,0,1,29.4.129a2.552,2.552,0,0,1-2.2-.972,3.266,3.266,0,0,1-.564-1.966,3.15,3.15,0,0,1,.741-2.221,2.441,2.441,0,0,1,1.875-.8,2.532,2.532,0,0,1,2.009.841,3.719,3.719,0,0,1,.7,2.575H28.177a1.527,1.527,0,0,0,.365,1.045,1.142,1.142,0,0,0,.87.373.924.924,0,0,0,.6-.193A1.194,1.194,0,0,0,30.374-1.815Zm.086-1.525a1.453,1.453,0,0,0-.338-1,1.038,1.038,0,0,0-.784-.341,1.048,1.048,0,0,0-.816.36,1.393,1.393,0,0,0-.317.978ZM38.376,0H36.867V-2.911a4.5,4.5,0,0,0-.1-1.2.838.838,0,0,0-.314-.422.9.9,0,0,0-.524-.15,1.21,1.21,0,0,0-.7.215,1.082,1.082,0,0,0-.427.569,4.921,4.921,0,0,0-.115,1.311V0H33.177V-5.7h1.4v.838a2.284,2.284,0,0,1,1.88-.967,2.265,2.265,0,0,1,.913.18A1.53,1.53,0,0,1,38-5.194a1.664,1.664,0,0,1,.3.634,4.714,4.714,0,0,1,.083,1.015ZM42.99,0V-7.874h1.547L47.76-2.616V-7.874h1.477V0h-1.6L44.467-5.135V0ZM54.21-1.815l1.5.252A2.467,2.467,0,0,1,54.8-.3a2.69,2.69,0,0,1-1.566.432,2.552,2.552,0,0,1-2.2-.972,3.266,3.266,0,0,1-.564-1.966,3.15,3.15,0,0,1,.741-2.221,2.441,2.441,0,0,1,1.875-.8,2.532,2.532,0,0,1,2.009.841,3.719,3.719,0,0,1,.7,2.575H52.014a1.527,1.527,0,0,0,.365,1.045,1.142,1.142,0,0,0,.87.373.924.924,0,0,0,.6-.193A1.194,1.194,0,0,0,54.21-1.815ZM54.3-3.341a1.453,1.453,0,0,0-.338-1,1.038,1.038,0,0,0-.784-.341,1.048,1.048,0,0,0-.816.36,1.393,1.393,0,0,0-.317.978ZM59.641-5.7v1.2H58.609v2.3a5.717,5.717,0,0,0,.03.814.332.332,0,0,0,.134.191.426.426,0,0,0,.255.075,1.952,1.952,0,0,0,.607-.145L59.764-.1a3,3,0,0,1-1.192.226,1.891,1.891,0,0,1-.736-.137,1.074,1.074,0,0,1-.481-.354,1.4,1.4,0,0,1-.212-.588,7.316,7.316,0,0,1-.048-1.063V-4.5H56.4V-5.7h.693V-6.837l1.515-.881V-5.7Zm.7,2.771a3.086,3.086,0,0,1,.371-1.456,2.544,2.544,0,0,1,1.05-1.074,3.116,3.116,0,0,1,1.517-.371,2.848,2.848,0,0,1,2.122.841,2.9,2.9,0,0,1,.827,2.124A2.939,2.939,0,0,1,65.39-.722a2.823,2.823,0,0,1-2.1.851,3.312,3.312,0,0,1-1.5-.354,2.432,2.432,0,0,1-1.082-1.039A3.463,3.463,0,0,1,60.339-2.933Zm1.547.081a1.89,1.89,0,0,0,.4,1.3,1.28,1.28,0,0,0,.994.451,1.272,1.272,0,0,0,.991-.451,1.916,1.916,0,0,0,.4-1.311,1.881,1.881,0,0,0-.4-1.289,1.272,1.272,0,0,0-.991-.451,1.28,1.28,0,0,0-.994.451A1.89,1.89,0,0,0,61.886-2.852Z" transform="translate(14.553 22.356)" fill="#10244a"/>
    <ellipse id="Ellipse_12380" data-name="Ellipse 12380" cx="30.5" cy="31" rx="30.5" ry="31" transform="translate(21.553 37.357)" fill="none" stroke="#d9efec" stroke-width="18"/>
    <path id="Path_1288809" data-name="Path 1288809" d="M1176,471a30.632,30.632,0,0,1,29.323,39.749" transform="translate(-1123.87 -433.206)" fill="none" stroke="#0a9a8b" stroke-linecap="round" stroke-width="18"/>
    <path id="Path_1328366" data-name="Path 1328366" d="M7.588-1.912V0H.374a4.969,4.969,0,0,1,.7-2.054A13.671,13.671,0,0,1,3.391-4.629,14.558,14.558,0,0,0,5.1-6.387a2.264,2.264,0,0,0,.425-1.26A1.432,1.432,0,0,0,5.153-8.7a1.381,1.381,0,0,0-1.022-.37,1.371,1.371,0,0,0-1.025.388A1.994,1.994,0,0,0,2.666-7.4L.615-7.6a3.362,3.362,0,0,1,1.15-2.439,3.861,3.861,0,0,1,2.417-.74,3.493,3.493,0,0,1,2.5.857,2.811,2.811,0,0,1,.908,2.131,3.71,3.71,0,0,1-.26,1.381A5.614,5.614,0,0,1,6.5-5.039a13.186,13.186,0,0,1-1.348,1.37q-.974.894-1.234,1.187a3.553,3.553,0,0,0-.421.571ZM13.015,0V-2.161H8.621v-1.8l4.658-6.819h1.729V-3.97H16.34v1.809H15.007V0Zm0-3.97V-7.639L10.547-3.97Zm4.321-4.116a3.1,3.1,0,0,1,.634-2.139,2.208,2.208,0,0,1,1.718-.7,2.259,2.259,0,0,1,1.754.692,3.094,3.094,0,0,1,.634,2.142,3.1,3.1,0,0,1-.634,2.139,2.208,2.208,0,0,1-1.718.7,2.259,2.259,0,0,1-1.754-.692A3.094,3.094,0,0,1,17.336-8.086Zm1.6-.015a2.775,2.775,0,0,0,.242,1.406.582.582,0,0,0,.505.264.589.589,0,0,0,.513-.264A2.85,2.85,0,0,0,20.435-8.1,2.8,2.8,0,0,0,20.2-9.5a.584.584,0,0,0-.513-.271.582.582,0,0,0-.505.264A2.775,2.775,0,0,0,18.94-8.1ZM21.255.41H19.731l5.72-11.331h1.479ZM24.58-2.41a3.1,3.1,0,0,1,.634-2.139,2.226,2.226,0,0,1,1.732-.7,2.235,2.235,0,0,1,1.74.7,3.1,3.1,0,0,1,.634,2.139,3.109,3.109,0,0,1-.634,2.146,2.208,2.208,0,0,1-1.718.7,2.253,2.253,0,0,1-1.754-.7A3.109,3.109,0,0,1,24.58-2.41Zm1.6-.007a2.729,2.729,0,0,0,.242,1.4.578.578,0,0,0,.505.271.571.571,0,0,0,.505-.264,2.775,2.775,0,0,0,.242-1.406,2.85,2.85,0,0,0-.234-1.406.589.589,0,0,0-.513-.264.571.571,0,0,0-.505.264A2.775,2.775,0,0,0,26.184-2.417Z" transform="translate(36.478 74.601)" fill="#10244a"/>
  </g>
</svg>
