<svg xmlns="http://www.w3.org/2000/svg" width="98" height="97.998" viewBox="0 0 98 97.998">
  <g id="Group_1204606" data-name="Group 1204606" transform="translate(-804 -2538)">
    <g id="Group_1204422" data-name="Group 1204422" transform="translate(1.219 571)">
      <g id="Group_1204180" data-name="Group 1204180" transform="translate(-1 -5.016)">
        <g id="Group_1204143" data-name="Group 1204143" transform="translate(-67.331 1694.852)">
          <g id="Group_1188789" data-name="Group 1188789" transform="translate(871.113 277.164)">
            <path id="Path_1243039" data-name="Path 1243039" d="M41.05,0h0a41.05,41.05,0,0,1,0,82.1h0a41.05,41.05,0,0,1,0-82.1Z" transform="translate(7.951 7.949)" fill="#efce09"/>
            <rect id="Rectangle_400907" data-name="Rectangle 400907" width="88.438" height="88.437" rx="44.218" transform="translate(4.782 4.781)" fill="none"/>
            <g id="Group_1098742" data-name="Group 1098742" transform="translate(0)">
              <g id="Rectangle_400898" data-name="Rectangle 400898" transform="translate(0)" fill="none" stroke="#fff" stroke-width="2" opacity="0.859">
                <rect width="98" height="97.999" rx="48.999" stroke="none"/>
                <rect x="1" y="1" width="96" height="95.999" rx="47.999" fill="none"/>
              </g>
              <g id="Rectangle_400907-2" data-name="Rectangle 400907" transform="translate(0)" fill="none" stroke="#0f1f33" stroke-linecap="round" stroke-width="2">
                <rect width="98" height="97.999" rx="48.999" stroke="none"/>
                <rect x="1" y="1" width="96" height="95.999" rx="47.999" fill="none"/>
              </g>
            </g>
          </g>
        </g>
      </g>
    </g>
    <g id="accounting-system_14699830" transform="translate(818.862 2531.779)">
      <g id="Group_1204442" data-name="Group 1204442" transform="translate(7.5 27.356)">
        <path id="Path_1327024" data-name="Path 1327024" d="M59.172,437.214H9.1a1.6,1.6,0,0,1-1.6-1.6v-2.489a1.6,1.6,0,0,1,1.6-1.6H59.172a1.6,1.6,0,0,1,1.6,1.6v2.489A1.6,1.6,0,0,1,59.172,437.214Z" transform="translate(-7.5 -388.196)" fill="#9c9c9c"/>
        <path id="Path_1327025" data-name="Path 1327025" d="M459.182,431.519h-3.646a1.6,1.6,0,0,1,1.6,1.6v2.489a1.6,1.6,0,0,1-1.6,1.6h3.646a1.6,1.6,0,0,0,1.6-1.6v-2.489A1.6,1.6,0,0,0,459.182,431.519Z" transform="translate(-407.51 -388.196)" fill="#838383"/>
        <path id="Path_1327026" data-name="Path 1327026" d="M184.437,434.418H171.454a2.9,2.9,0,0,1-2.9-2.9h18.78A2.9,2.9,0,0,1,184.437,434.418Z" transform="translate(-151.291 -388.196)" fill="#838383"/>
        <path id="Path_1327027" data-name="Path 1327027" d="M184.437,434.418H171.454a2.9,2.9,0,0,1-2.9-2.9h18.78A2.9,2.9,0,0,1,184.437,434.418Z" transform="translate(-151.291 -388.196)" fill="#838383"/>
        <path id="Path_1327028" data-name="Path 1327028" d="M184.437,434.418H171.454a2.9,2.9,0,0,1-2.9-2.9h18.78A2.9,2.9,0,0,1,184.437,434.418Z" transform="translate(-151.291 -388.196)" fill="#838383"/>
        <path id="Path_1327029" data-name="Path 1327029" d="M84.718,224.619H37.935v-23a1.844,1.844,0,0,1,1.844-1.844h43.1a1.844,1.844,0,0,1,1.844,1.844v23Z" transform="translate(-34.673 -181.296)" fill="#60b7ff"/>
        <path id="Path_1327030" data-name="Path 1327030" d="M426.812,199.778h-3.646a1.844,1.844,0,0,1,1.844,1.844v23h3.646v-23A1.844,1.844,0,0,0,426.812,199.778Z" transform="translate(-378.61 -181.296)" fill="#26a6fe"/>
        <g id="Group_1204440" data-name="Group 1204440" transform="translate(8.754 10.975)">
          <rect id="Rectangle_411768" data-name="Rectangle 411768" width="35.8" height="32.348" fill="#f2fbff"/>
          <rect id="Rectangle_411769" data-name="Rectangle 411769" width="3.217" height="32.348" transform="translate(32.583)" fill="#dff6fd"/>
          <g id="Group_1204439" data-name="Group 1204439" transform="translate(5.182 4.152)">
            <path id="Path_1327031" data-name="Path 1327031" d="M207.113,182.709h0a1.661,1.661,0,0,1-1.661-1.661v-10.91a1.661,1.661,0,0,1,1.661-1.661h0a1.661,1.661,0,0,1,1.661,1.661v10.91A1.661,1.661,0,0,1,207.113,182.709Z" transform="translate(-198.169 -168.476)" fill="#8ac9fe"/>
            <path id="Path_1327032" data-name="Path 1327032" d="M276.291,240.6h0a1.661,1.661,0,0,1-1.661-1.661v-3.959a1.661,1.661,0,0,1,1.661-1.661h0a1.661,1.661,0,0,1,1.661,1.661v3.959A1.661,1.661,0,0,1,276.291,240.6Z" transform="translate(-259.932 -226.371)" fill="#978ecb"/>
            <path id="Path_1327033" data-name="Path 1327033" d="M139.169,209.976h0a1.661,1.661,0,0,1-1.661-1.661v-7.636a1.661,1.661,0,0,1,1.661-1.661h0a1.661,1.661,0,0,1,1.661,1.661v7.636A1.661,1.661,0,0,1,139.169,209.976Z" transform="translate(-137.508 -195.743)" fill="#fe76a8"/>
            <path id="Path_1327034" data-name="Path 1327034" d="M345.468,209.976h0a1.661,1.661,0,0,1-1.661-1.661v-7.636a1.661,1.661,0,0,1,1.661-1.661h0a1.661,1.661,0,0,1,1.661,1.661v7.636A1.661,1.661,0,0,1,345.468,209.976Z" transform="translate(-321.693 -195.743)" fill="#97da7b"/>
          </g>
        </g>
        <g id="Group_1204441" data-name="Group 1204441" transform="translate(8.754 6.733)">
          <path id="Path_1327035" data-name="Path 1327035" d="M123.326,90.167H90.808a1.641,1.641,0,0,0-1.641,1.641v2.6h35.8v-2.6A1.642,1.642,0,0,0,123.326,90.167Z" transform="translate(-89.167 -90.167)" fill="#9c9c9c"/>
        </g>
        <circle id="Ellipse_12477" data-name="Ellipse 12477" cx="3.521" cy="3.521" r="3.521" transform="translate(12.957 39.041) rotate(-75.126)" fill="#8ac9fe"/>
        <circle id="Ellipse_12478" data-name="Ellipse 12478" cx="6.952" cy="6.952" r="6.952" transform="translate(39.366 0)" fill="#ffe177"/>
        <path id="Path_1327036" data-name="Path 1327036" d="M430.032,34.311a6.954,6.954,0,0,1-8.936,6.664,6.953,6.953,0,0,0,0-13.327,6.954,6.954,0,0,1,8.936,6.663Z" transform="translate(-376.762 -27.36)" fill="#ffd15b"/>
        <circle id="Ellipse_12479" data-name="Ellipse 12479" cx="3.521" cy="3.521" r="3.521" transform="translate(23.548 38.698) rotate(-70.67)" fill="#8ac9fe"/>
        <path id="Path_1327037" data-name="Path 1327037" d="M272.587,338.908h-3.521v-3.521A3.522,3.522,0,0,1,272.587,338.908Z" transform="translate(-241.028 -302.368)" fill="#978ecb"/>
        <path id="Path_1327038" data-name="Path 1327038" d="M172.077,338.908a3.522,3.522,0,0,1-3.521,3.521v-7.043A3.522,3.522,0,0,1,172.077,338.908Z" transform="translate(-151.292 -302.368)" fill="#fe76a8"/>
      </g>
      <g id="Group_1204447" data-name="Group 1204447" transform="translate(7.5 27.356)">
        <path id="Path_1327039" data-name="Path 1327039" d="M59.172,437.214H9.1a1.6,1.6,0,0,1-1.6-1.6v-2.489a1.6,1.6,0,0,1,1.6-1.6H59.172a1.6,1.6,0,0,1,1.6,1.6v2.489A1.6,1.6,0,0,1,59.172,437.214Z" transform="translate(-7.5 -388.196)" fill="none" stroke="#000" stroke-linecap="round" stroke-linejoin="round" stroke-miterlimit="10" stroke-width="1"/>
        <path id="Path_1327040" data-name="Path 1327040" d="M184.437,434.418H171.454a2.9,2.9,0,0,1-2.9-2.9h18.78A2.9,2.9,0,0,1,184.437,434.418Z" transform="translate(-151.291 -388.196)" fill="none" stroke="#000" stroke-linecap="round" stroke-linejoin="round" stroke-miterlimit="10" stroke-width="1"/>
        <g id="Group_1204444" data-name="Group 1204444" transform="translate(8.754 10.976)">
          <path id="Path_1327041" data-name="Path 1327041" d="M89.166,137.257V129.75h31.893" transform="translate(-89.166 -129.75)" fill="none" stroke="#000" stroke-linecap="round" stroke-linejoin="round" stroke-miterlimit="10" stroke-width="1"/>
          <path id="Path_1327042" data-name="Path 1327042" d="M124.966,154.96v29.645h-35.8v-21.08" transform="translate(-89.166 -152.258)" fill="none" stroke="#000" stroke-linecap="round" stroke-linejoin="round" stroke-miterlimit="10" stroke-width="1"/>
          <g id="Group_1204443" data-name="Group 1204443" transform="translate(5.182 4.151)">
            <path id="Path_1327043" data-name="Path 1327043" d="M207.113,182.709h0a1.661,1.661,0,0,1-1.661-1.661v-10.91a1.661,1.661,0,0,1,1.661-1.661h0a1.661,1.661,0,0,1,1.661,1.661v10.91A1.661,1.661,0,0,1,207.113,182.709Z" transform="translate(-198.169 -168.476)" fill="none" stroke="#000" stroke-linecap="round" stroke-linejoin="round" stroke-miterlimit="10" stroke-width="1"/>
            <path id="Path_1327044" data-name="Path 1327044" d="M276.291,240.6h0a1.661,1.661,0,0,1-1.661-1.661v-3.959a1.661,1.661,0,0,1,1.661-1.661h0a1.661,1.661,0,0,1,1.661,1.661v3.959A1.661,1.661,0,0,1,276.291,240.6Z" transform="translate(-259.932 -226.371)" fill="none" stroke="#000" stroke-linecap="round" stroke-linejoin="round" stroke-miterlimit="10" stroke-width="1"/>
            <path id="Path_1327045" data-name="Path 1327045" d="M139.169,209.976h0a1.661,1.661,0,0,1-1.661-1.661v-7.636a1.661,1.661,0,0,1,1.661-1.661h0a1.661,1.661,0,0,1,1.661,1.661v7.636A1.661,1.661,0,0,1,139.169,209.976Z" transform="translate(-137.508 -195.743)" fill="none" stroke="#000" stroke-linecap="round" stroke-linejoin="round" stroke-miterlimit="10" stroke-width="1"/>
            <path id="Path_1327046" data-name="Path 1327046" d="M345.468,209.976h0a1.661,1.661,0,0,1-1.661-1.661v-7.636a1.661,1.661,0,0,1,1.661-1.661h0a1.661,1.661,0,0,1,1.661,1.661v7.636A1.661,1.661,0,0,1,345.468,209.976Z" transform="translate(-321.693 -195.743)" fill="none" stroke="#000" stroke-linecap="round" stroke-linejoin="round" stroke-miterlimit="10" stroke-width="1"/>
          </g>
        </g>
        <circle id="Ellipse_12480" data-name="Ellipse 12480" cx="6.952" cy="6.952" r="6.952" transform="translate(39.366 0)" fill="none" stroke="#000" stroke-linecap="round" stroke-linejoin="round" stroke-miterlimit="10" stroke-width="1"/>
        <g id="Group_1204445" data-name="Group 1204445" transform="translate(44.749 3.226)">
          <path id="Path_1327047" data-name="Path 1327047" d="M427.687,65.142a1.776,1.776,0,0,0-1.668-.3,1.243,1.243,0,0,0-.528,2.046,6,6,0,0,0,1.643.778,1.511,1.511,0,0,1-.637,2.913,2.239,2.239,0,0,1-1.532-.412" transform="translate(-424.965 -63.973)" fill="none" stroke="#000" stroke-linecap="round" stroke-linejoin="round" stroke-miterlimit="10" stroke-width="1"/>
          <line id="Line_565" data-name="Line 565" y1="0.847" transform="translate(1.532 6.606)" fill="none" stroke="#000" stroke-linecap="round" stroke-linejoin="round" stroke-miterlimit="10" stroke-width="1"/>
          <line id="Line_566" data-name="Line 566" y1="0.786" transform="translate(1.532)" fill="none" stroke="#000" stroke-linecap="round" stroke-linejoin="round" stroke-miterlimit="10" stroke-width="1"/>
        </g>
        <g id="Group_1204446" data-name="Group 1204446" transform="translate(8.754 6.733)">
          <path id="Path_1327048" data-name="Path 1327048" d="M116.016,90.17H90.807a1.641,1.641,0,0,0-1.641,1.641v2.6h31.893" transform="translate(-89.166 -90.17)" fill="none" stroke="#000" stroke-linecap="round" stroke-linejoin="round" stroke-miterlimit="10" stroke-width="1"/>
        </g>
        <path id="Path_1327049" data-name="Path 1327049" d="M43.427,199.78H39.78a1.844,1.844,0,0,0-1.844,1.844v23H84.719v-23a1.844,1.844,0,0,0-1.844-1.844H79.228" transform="translate(-34.673 -181.297)" fill="none" stroke="#000" stroke-linecap="round" stroke-linejoin="round" stroke-miterlimit="10" stroke-width="1"/>
        <circle id="Ellipse_12481" data-name="Ellipse 12481" cx="3.521" cy="3.521" r="3.521" transform="translate(12.957 39.041) rotate(-75.126)" fill="none" stroke="#000" stroke-linecap="round" stroke-linejoin="round" stroke-miterlimit="10" stroke-width="1"/>
        <circle id="Ellipse_12482" data-name="Ellipse 12482" cx="3.521" cy="3.521" r="3.521" transform="translate(23.548 38.698) rotate(-70.67)" fill="none" stroke="#000" stroke-linecap="round" stroke-linejoin="round" stroke-miterlimit="10" stroke-width="1"/>
        <line id="Line_567" data-name="Line 567" x2="2.274" transform="translate(34.825 35.168)" fill="none" stroke="#000" stroke-linecap="round" stroke-linejoin="round" stroke-miterlimit="10" stroke-width="1"/>
        <line id="Line_568" data-name="Line 568" x2="4.548" transform="translate(34.825 38.246)" fill="none" stroke="#000" stroke-linecap="round" stroke-linejoin="round" stroke-miterlimit="10" stroke-width="1"/>
        <path id="Path_1327050" data-name="Path 1327050" d="M272.587,338.908h-3.521v-3.521A3.522,3.522,0,0,1,272.587,338.908Z" transform="translate(-241.028 -302.368)" fill="none" stroke="#000" stroke-linecap="round" stroke-linejoin="round" stroke-miterlimit="10" stroke-width="1"/>
        <path id="Path_1327051" data-name="Path 1327051" d="M172.077,338.908a3.522,3.522,0,0,1-3.521,3.521v-7.043A3.522,3.522,0,0,1,172.077,338.908Z" transform="translate(-151.292 -302.368)" fill="none" stroke="#000" stroke-linecap="round" stroke-linejoin="round" stroke-miterlimit="10" stroke-width="1"/>
      </g>
    </g>
  </g>
</svg>
